<?xml version="1.0" encoding="utf-8"?>
<!-- Generator: Adobe Illustrator 16.0.3, SVG Export Plug-In . SVG Version: 6.00 Build 0)  -->
<!DOCTYPE svg PUBLIC "-//W3C//DTD SVG 1.1//EN" "http://www.w3.org/Graphics/SVG/1.1/DTD/svg11.dtd">
<svg version="1.1" id="Layer_1" xmlns="http://www.w3.org/2000/svg" xmlns:xlink="http://www.w3.org/1999/xlink" x="0px" y="0px"
	 width="48px" height="20px" viewBox="0 0 48 20" enable-background="new 0 0 48 20" xml:space="preserve">
<g>
	<g>
		<g>
			<path fill="#09D35F" d="M36.258,10.72h-2.885V9.279h2.885V10.72z M31.934,10.72h-2.885V9.279h2.885V10.72z M27.604,10.72H24.72
				V9.279h2.885V10.72z M23.279,10.72h-2.885V9.279h2.885V10.72z M18.952,10.72h-2.885V9.279h2.885V10.72z M14.625,10.72H11.74
				V9.279h2.884V10.72z M10.298,10.72H7.414V9.279h2.884V10.72z"/>
		</g>
	</g>
	<g>
		<polygon fill="#09D35F" points="34.097,17 33.075,15.981 39.058,10 33.075,4.02 34.097,3 40.587,9.491 40.587,10.512 		"/>
	</g>
</g>
</svg>
