<?xml version="1.0" encoding="utf-8"?>
<!-- Generator: Adobe Illustrator 16.0.3, SVG Export Plug-In . SVG Version: 6.00 Build 0)  -->
<!DOCTYPE svg PUBLIC "-//W3C//DTD SVG 1.1//EN" "http://www.w3.org/Graphics/SVG/1.1/DTD/svg11.dtd">
<svg version="1.1" id="Layer_1" xmlns="http://www.w3.org/2000/svg" xmlns:xlink="http://www.w3.org/1999/xlink" x="0px" y="0px"
	 width="48px" height="20px" viewBox="0 0 48 20" enable-background="new 0 0 48 20" xml:space="preserve">
<g>
	<g>
		<g>
			<path fill="#0B4EA2" d="M11.743,9.28h2.885v1.44h-2.885V9.28z M16.067,9.28h2.885v1.44h-2.885V9.28z M20.397,9.28h2.883v1.44
				h-2.885V9.28H20.397z M24.722,9.28h2.885v1.44h-2.885V9.28z M29.049,9.28h2.885v1.44h-2.885V9.28z M33.376,9.28h2.885v1.44
				h-2.884L33.376,9.28L33.376,9.28z M37.703,9.28h2.884v1.44h-2.884V9.28z"/>
		</g>
	</g>
	<g>
		<polygon fill="#0B4EA2" points="13.903,3 14.926,4.02 8.942,10 14.926,15.979 13.903,17 7.414,10.509 7.414,9.488 		"/>
	</g>
</g>
</svg>
