<?xml version="1.0" encoding="utf-8"?>
<!-- Generator: Adobe Illustrator 16.0.3, SVG Export Plug-In . SVG Version: 6.00 Build 0)  -->
<!DOCTYPE svg PUBLIC "-//W3C//DTD SVG 1.1//EN" "http://www.w3.org/Graphics/SVG/1.1/DTD/svg11.dtd">
<svg version="1.1" id="Layer_1" xmlns="http://www.w3.org/2000/svg" xmlns:xlink="http://www.w3.org/1999/xlink" x="0px" y="0px"
	 width="48px" height="20px" viewBox="16 82.25 48 20" enable-background="new 16 82.25 48 20" xml:space="preserve">
<g>
	<g>
		<g>
			<path fill="#09D35F" d="M23,91.25h4v2h-4V91.25z M29,91.25h4v2h-4V91.25z M35,91.25h4v2h-4V91.25z M41,91.25h4v2h-4V91.25z
				 M47,91.25h4v2h-4V91.25z M53,91.25h4v2h-4V91.25z M59,91.25h4v2h-4V91.25z"/>
		</g>
	</g>
	<g>
		<polygon fill="#09D35F" points="26,82.543 27.414,83.957 19.121,92.25 27.414,100.543 26,101.957 17,92.957 17,91.543 		"/>
	</g>
</g>
</svg>
