<?xml version="1.0" encoding="utf-8"?>
<!-- Generator: Adobe Illustrator 16.0.3, SVG Export Plug-In . SVG Version: 6.00 Build 0)  -->
<!DOCTYPE svg PUBLIC "-//W3C//DTD SVG 1.1//EN" "http://www.w3.org/Graphics/SVG/1.1/DTD/svg11.dtd">
<svg version="1.1" id="Layer_1" xmlns="http://www.w3.org/2000/svg" xmlns:xlink="http://www.w3.org/1999/xlink" x="0px" y="0px"
	 width="50px" height="86.6px" viewBox="0 0 50 86.6" enable-background="new 0 0 50 86.6" xml:space="preserve">
<g>
	<rect x="-0.349" y="-0.19" fill="none" width="49.999" height="86.6"/>
	<g>
		<line fill="none" stroke="#84A6D0" stroke-width="4" stroke-miterlimit="10" x1="49.65" y1="173.01" x2="99.65" y2="86.408"/>
		<line fill="none" stroke="#84A6D0" stroke-width="4" stroke-miterlimit="10" x1="39.65" y1="173.01" x2="89.65" y2="86.408"/>
		<line fill="none" stroke="#84A6D0" stroke-width="4" stroke-miterlimit="10" x1="29.65" y1="173.01" x2="79.65" y2="86.408"/>
		<line fill="none" stroke="#84A6D0" stroke-width="4" stroke-miterlimit="10" x1="19.651" y1="173.01" x2="69.65" y2="86.408"/>
		<line fill="none" stroke="#84A6D0" stroke-width="4" stroke-miterlimit="10" x1="9.651" y1="173.01" x2="59.65" y2="86.408"/>
	</g>
	<g>
		<line fill="none" stroke="#84A6D0" stroke-width="4" stroke-miterlimit="10" x1="-0.349" y1="173.01" x2="49.65" y2="86.408"/>
		<line fill="none" stroke="#84A6D0" stroke-width="4" stroke-miterlimit="10" x1="-10.349" y1="173.01" x2="39.65" y2="86.408"/>
		<line fill="none" stroke="#84A6D0" stroke-width="4" stroke-miterlimit="10" x1="-20.349" y1="173.01" x2="29.65" y2="86.408"/>
		<line fill="none" stroke="#84A6D0" stroke-width="4" stroke-miterlimit="10" x1="-30.349" y1="173.01" x2="19.651" y2="86.408"/>
		<line fill="none" stroke="#84A6D0" stroke-width="4" stroke-miterlimit="10" x1="-40.349" y1="173.01" x2="9.651" y2="86.408"/>
		<line fill="none" stroke="#84A6D0" stroke-width="4" stroke-miterlimit="10" x1="49.65" y1="173.01" x2="99.65" y2="86.408"/>
		<line fill="none" stroke="#84A6D0" stroke-width="4" stroke-miterlimit="10" x1="39.65" y1="173.01" x2="89.65" y2="86.408"/>
		<line fill="none" stroke="#84A6D0" stroke-width="4" stroke-miterlimit="10" x1="29.65" y1="173.01" x2="79.65" y2="86.408"/>
		<line fill="none" stroke="#84A6D0" stroke-width="4" stroke-miterlimit="10" x1="19.651" y1="173.01" x2="69.65" y2="86.408"/>
		<line fill="none" stroke="#84A6D0" stroke-width="4" stroke-miterlimit="10" x1="9.651" y1="173.01" x2="59.65" y2="86.408"/>
	</g>
	<g>
		<line fill="none" stroke="#84A6D0" stroke-width="4" stroke-miterlimit="10" x1="-50.349" y1="173.01" x2="-0.349" y2="86.408"/>
		<line fill="none" stroke="#84A6D0" stroke-width="4" stroke-miterlimit="10" x1="-0.349" y1="173.01" x2="49.65" y2="86.408"/>
		<line fill="none" stroke="#84A6D0" stroke-width="4" stroke-miterlimit="10" x1="-10.349" y1="173.01" x2="39.65" y2="86.408"/>
		<line fill="none" stroke="#84A6D0" stroke-width="4" stroke-miterlimit="10" x1="-20.349" y1="173.01" x2="29.65" y2="86.408"/>
		<line fill="none" stroke="#84A6D0" stroke-width="4" stroke-miterlimit="10" x1="-30.349" y1="173.01" x2="19.651" y2="86.408"/>
		<line fill="none" stroke="#84A6D0" stroke-width="4" stroke-miterlimit="10" x1="-40.349" y1="173.01" x2="9.651" y2="86.408"/>
	</g>
	<g>
		<line fill="none" stroke="#84A6D0" stroke-width="4" stroke-miterlimit="10" x1="-50.349" y1="173.01" x2="-0.349" y2="86.408"/>
	</g>
	<g>
		<line fill="none" stroke="#84A6D0" stroke-width="4" stroke-miterlimit="10" x1="49.65" y1="86.41" x2="99.65" y2="-0.191"/>
		<line fill="none" stroke="#84A6D0" stroke-width="4" stroke-miterlimit="10" x1="39.65" y1="86.41" x2="89.65" y2="-0.191"/>
		<line fill="none" stroke="#84A6D0" stroke-width="4" stroke-miterlimit="10" x1="29.65" y1="86.41" x2="79.65" y2="-0.191"/>
		<line fill="none" stroke="#84A6D0" stroke-width="4" stroke-miterlimit="10" x1="19.651" y1="86.41" x2="69.65" y2="-0.191"/>
		<line fill="none" stroke="#84A6D0" stroke-width="4" stroke-miterlimit="10" x1="9.651" y1="86.41" x2="59.65" y2="-0.191"/>
	</g>
	<g>
		<line fill="none" stroke="#84A6D0" stroke-width="4" stroke-miterlimit="10" x1="-0.349" y1="86.41" x2="49.65" y2="-0.191"/>
		<line fill="none" stroke="#84A6D0" stroke-width="4" stroke-miterlimit="10" x1="-10.349" y1="86.41" x2="39.65" y2="-0.191"/>
		<line fill="none" stroke="#84A6D0" stroke-width="4" stroke-miterlimit="10" x1="-20.349" y1="86.41" x2="29.65" y2="-0.191"/>
		<line fill="none" stroke="#84A6D0" stroke-width="4" stroke-miterlimit="10" x1="-30.349" y1="86.41" x2="19.651" y2="-0.191"/>
		<line fill="none" stroke="#84A6D0" stroke-width="4" stroke-miterlimit="10" x1="-40.349" y1="86.41" x2="9.651" y2="-0.191"/>
		<line fill="none" stroke="#84A6D0" stroke-width="4" stroke-miterlimit="10" x1="49.65" y1="86.41" x2="99.65" y2="-0.191"/>
		<line fill="none" stroke="#84A6D0" stroke-width="4" stroke-miterlimit="10" x1="39.65" y1="86.41" x2="89.65" y2="-0.191"/>
		<line fill="none" stroke="#84A6D0" stroke-width="4" stroke-miterlimit="10" x1="29.65" y1="86.41" x2="79.65" y2="-0.191"/>
		<line fill="none" stroke="#84A6D0" stroke-width="4" stroke-miterlimit="10" x1="19.651" y1="86.41" x2="69.65" y2="-0.191"/>
		<line fill="none" stroke="#84A6D0" stroke-width="4" stroke-miterlimit="10" x1="9.651" y1="86.41" x2="59.65" y2="-0.191"/>
	</g>
	<g>
		<line fill="none" stroke="#84A6D0" stroke-width="4" stroke-miterlimit="10" x1="-50.349" y1="86.41" x2="-0.349" y2="-0.191"/>
		<line fill="none" stroke="#84A6D0" stroke-width="4" stroke-miterlimit="10" x1="-0.349" y1="86.41" x2="49.65" y2="-0.191"/>
		<line fill="none" stroke="#84A6D0" stroke-width="4" stroke-miterlimit="10" x1="-10.349" y1="86.41" x2="39.65" y2="-0.191"/>
		<line fill="none" stroke="#84A6D0" stroke-width="4" stroke-miterlimit="10" x1="-20.349" y1="86.41" x2="29.65" y2="-0.191"/>
		<line fill="none" stroke="#84A6D0" stroke-width="4" stroke-miterlimit="10" x1="-30.349" y1="86.41" x2="19.651" y2="-0.191"/>
		<line fill="none" stroke="#84A6D0" stroke-width="4" stroke-miterlimit="10" x1="-40.349" y1="86.41" x2="9.651" y2="-0.191"/>
	</g>
	<g>
		<line fill="none" stroke="#84A6D0" stroke-width="4" stroke-miterlimit="10" x1="-50.349" y1="86.41" x2="-0.349" y2="-0.191"/>
	</g>
	<g>
		<line fill="none" stroke="#84A6D0" stroke-width="4" stroke-miterlimit="10" x1="49.65" y1="-0.189" x2="99.65" y2="-86.791"/>
		<line fill="none" stroke="#84A6D0" stroke-width="4" stroke-miterlimit="10" x1="39.65" y1="-0.189" x2="89.65" y2="-86.791"/>
		<line fill="none" stroke="#84A6D0" stroke-width="4" stroke-miterlimit="10" x1="29.65" y1="-0.189" x2="79.65" y2="-86.791"/>
		<line fill="none" stroke="#84A6D0" stroke-width="4" stroke-miterlimit="10" x1="19.651" y1="-0.189" x2="69.65" y2="-86.791"/>
		<line fill="none" stroke="#84A6D0" stroke-width="4" stroke-miterlimit="10" x1="9.651" y1="-0.189" x2="59.65" y2="-86.791"/>
	</g>
	<g>
		<line fill="none" stroke="#84A6D0" stroke-width="4" stroke-miterlimit="10" x1="-0.349" y1="-0.189" x2="49.65" y2="-86.791"/>
		<line fill="none" stroke="#84A6D0" stroke-width="4" stroke-miterlimit="10" x1="-10.349" y1="-0.189" x2="39.65" y2="-86.791"/>
		<line fill="none" stroke="#84A6D0" stroke-width="4" stroke-miterlimit="10" x1="-20.349" y1="-0.189" x2="29.65" y2="-86.791"/>
		<line fill="none" stroke="#84A6D0" stroke-width="4" stroke-miterlimit="10" x1="-30.349" y1="-0.189" x2="19.651" y2="-86.791"/>
		<line fill="none" stroke="#84A6D0" stroke-width="4" stroke-miterlimit="10" x1="-40.349" y1="-0.189" x2="9.651" y2="-86.791"/>
		<line fill="none" stroke="#84A6D0" stroke-width="4" stroke-miterlimit="10" x1="49.65" y1="-0.189" x2="99.65" y2="-86.791"/>
		<line fill="none" stroke="#84A6D0" stroke-width="4" stroke-miterlimit="10" x1="39.65" y1="-0.189" x2="89.65" y2="-86.791"/>
		<line fill="none" stroke="#84A6D0" stroke-width="4" stroke-miterlimit="10" x1="29.65" y1="-0.189" x2="79.65" y2="-86.791"/>
		<line fill="none" stroke="#84A6D0" stroke-width="4" stroke-miterlimit="10" x1="19.651" y1="-0.189" x2="69.65" y2="-86.791"/>
		<line fill="none" stroke="#84A6D0" stroke-width="4" stroke-miterlimit="10" x1="9.651" y1="-0.189" x2="59.65" y2="-86.791"/>
	</g>
	<g>
		<line fill="none" stroke="#84A6D0" stroke-width="4" stroke-miterlimit="10" x1="-50.349" y1="-0.189" x2="-0.349" y2="-86.791"/>
		<line fill="none" stroke="#84A6D0" stroke-width="4" stroke-miterlimit="10" x1="-0.349" y1="-0.189" x2="49.65" y2="-86.791"/>
		<line fill="none" stroke="#84A6D0" stroke-width="4" stroke-miterlimit="10" x1="-10.349" y1="-0.189" x2="39.65" y2="-86.791"/>
		<line fill="none" stroke="#84A6D0" stroke-width="4" stroke-miterlimit="10" x1="-20.349" y1="-0.189" x2="29.65" y2="-86.791"/>
		<line fill="none" stroke="#84A6D0" stroke-width="4" stroke-miterlimit="10" x1="-30.349" y1="-0.189" x2="19.651" y2="-86.791"/>
		<line fill="none" stroke="#84A6D0" stroke-width="4" stroke-miterlimit="10" x1="-40.349" y1="-0.189" x2="9.651" y2="-86.791"/>
	</g>
	<g>
		<line fill="none" stroke="#84A6D0" stroke-width="4" stroke-miterlimit="10" x1="-50.349" y1="-0.189" x2="-0.349" y2="-86.791"/>
	</g>
</g>
</svg>
