<?xml version="1.0" encoding="utf-8"?>
<!-- Generator: Adobe Illustrator 16.0.3, SVG Export Plug-In . SVG Version: 6.00 Build 0)  -->
<!DOCTYPE svg PUBLIC "-//W3C//DTD SVG 1.1//EN" "http://www.w3.org/Graphics/SVG/1.1/DTD/svg11.dtd">
<svg version="1.1" id="Layer_1" xmlns="http://www.w3.org/2000/svg" xmlns:xlink="http://www.w3.org/1999/xlink" x="0px" y="0px"
	 width="50px" height="86.6px" viewBox="0 0 50 86.6" enable-background="new 0 0 50 86.6" xml:space="preserve">
<g>
	<rect y="-0.3" fill="none" width="50" height="86.6"/>
	<g>
		<line fill="#0B4EA2" stroke="#FFE57F" stroke-width="4" stroke-miterlimit="10" x1="60" y1="172.9" x2="10" y2="86.299"/>
		<line fill="#0B4EA2" stroke="#FFE57F" stroke-width="4" stroke-miterlimit="10" x1="70" y1="172.9" x2="20" y2="86.299"/>
		<line fill="#0B4EA2" stroke="#FFE57F" stroke-width="4" stroke-miterlimit="10" x1="80" y1="172.9" x2="30" y2="86.299"/>
		<line fill="#0B4EA2" stroke="#FFE57F" stroke-width="4" stroke-miterlimit="10" x1="90" y1="172.9" x2="40" y2="86.299"/>
		<line fill="#0B4EA2" stroke="#FFE57F" stroke-width="4" stroke-miterlimit="10" x1="100" y1="172.9" x2="50" y2="86.299"/>
	</g>
	<g>
		<line fill="#0B4EA2" stroke="#FFE57F" stroke-width="4" stroke-miterlimit="10" x1="60" y1="172.9" x2="10" y2="86.299"/>
		<line fill="#0B4EA2" stroke="#FFE57F" stroke-width="4" stroke-miterlimit="10" x1="70" y1="172.9" x2="20" y2="86.299"/>
		<line fill="#0B4EA2" stroke="#FFE57F" stroke-width="4" stroke-miterlimit="10" x1="80" y1="172.9" x2="30" y2="86.299"/>
		<line fill="#0B4EA2" stroke="#FFE57F" stroke-width="4" stroke-miterlimit="10" x1="90" y1="172.9" x2="40" y2="86.299"/>
		<line fill="#0B4EA2" stroke="#FFE57F" stroke-width="4" stroke-miterlimit="10" x1="100" y1="172.9" x2="50" y2="86.299"/>
		<line fill="#0B4EA2" stroke="#FFE57F" stroke-width="4" stroke-miterlimit="10" x1="10" y1="172.9" x2="-40" y2="86.299"/>
		<line fill="#0B4EA2" stroke="#FFE57F" stroke-width="4" stroke-miterlimit="10" x1="20" y1="172.9" x2="-30" y2="86.299"/>
		<line fill="#0B4EA2" stroke="#FFE57F" stroke-width="4" stroke-miterlimit="10" x1="30" y1="172.9" x2="-20" y2="86.299"/>
		<line fill="#0B4EA2" stroke="#FFE57F" stroke-width="4" stroke-miterlimit="10" x1="40" y1="172.9" x2="-10" y2="86.299"/>
		<line fill="#0B4EA2" stroke="#FFE57F" stroke-width="4" stroke-miterlimit="10" x1="50" y1="172.9" x2="0" y2="86.299"/>
	</g>
	<g>
		<line fill="#0B4EA2" stroke="#FFE57F" stroke-width="4" stroke-miterlimit="10" x1="10" y1="172.9" x2="-40" y2="86.299"/>
		<line fill="#0B4EA2" stroke="#FFE57F" stroke-width="4" stroke-miterlimit="10" x1="20" y1="172.9" x2="-30" y2="86.299"/>
		<line fill="#0B4EA2" stroke="#FFE57F" stroke-width="4" stroke-miterlimit="10" x1="30" y1="172.9" x2="-20" y2="86.299"/>
		<line fill="#0B4EA2" stroke="#FFE57F" stroke-width="4" stroke-miterlimit="10" x1="40" y1="172.9" x2="-10" y2="86.299"/>
		<line fill="#0B4EA2" stroke="#FFE57F" stroke-width="4" stroke-miterlimit="10" x1="50" y1="172.9" x2="0" y2="86.299"/>
		<line fill="#0B4EA2" stroke="#FFE57F" stroke-width="4" stroke-miterlimit="10" x1="0" y1="172.9" x2="-50" y2="86.299"/>
	</g>
	<g>
		<line fill="#0B4EA2" stroke="#FFE57F" stroke-width="4" stroke-miterlimit="10" x1="0" y1="172.9" x2="-50" y2="86.299"/>
	</g>
	<g>
		<line fill="#0B4EA2" stroke="#FFE57F" stroke-width="4" stroke-miterlimit="10" x1="60" y1="86.301" x2="10" y2="-0.301"/>
		<line fill="#0B4EA2" stroke="#FFE57F" stroke-width="4" stroke-miterlimit="10" x1="70" y1="86.301" x2="20" y2="-0.301"/>
		<line fill="#0B4EA2" stroke="#FFE57F" stroke-width="4" stroke-miterlimit="10" x1="80" y1="86.301" x2="30" y2="-0.301"/>
		<line fill="#0B4EA2" stroke="#FFE57F" stroke-width="4" stroke-miterlimit="10" x1="90" y1="86.301" x2="40" y2="-0.301"/>
		<line fill="#0B4EA2" stroke="#FFE57F" stroke-width="4" stroke-miterlimit="10" x1="100" y1="86.301" x2="50" y2="-0.301"/>
	</g>
	<g>
		<line fill="#0B4EA2" stroke="#FFE57F" stroke-width="4" stroke-miterlimit="10" x1="60" y1="86.301" x2="10" y2="-0.301"/>
		<line fill="#0B4EA2" stroke="#FFE57F" stroke-width="4" stroke-miterlimit="10" x1="70" y1="86.301" x2="20" y2="-0.301"/>
		<line fill="#0B4EA2" stroke="#FFE57F" stroke-width="4" stroke-miterlimit="10" x1="80" y1="86.301" x2="30" y2="-0.301"/>
		<line fill="#0B4EA2" stroke="#FFE57F" stroke-width="4" stroke-miterlimit="10" x1="90" y1="86.301" x2="40" y2="-0.301"/>
		<line fill="#0B4EA2" stroke="#FFE57F" stroke-width="4" stroke-miterlimit="10" x1="100" y1="86.301" x2="50" y2="-0.301"/>
		<line fill="#0B4EA2" stroke="#FFE57F" stroke-width="4" stroke-miterlimit="10" x1="10" y1="86.301" x2="-40" y2="-0.301"/>
		<line fill="#0B4EA2" stroke="#FFE57F" stroke-width="4" stroke-miterlimit="10" x1="20" y1="86.301" x2="-30" y2="-0.301"/>
		<line fill="#0B4EA2" stroke="#FFE57F" stroke-width="4" stroke-miterlimit="10" x1="30" y1="86.301" x2="-20" y2="-0.301"/>
		<line fill="#0B4EA2" stroke="#FFE57F" stroke-width="4" stroke-miterlimit="10" x1="40" y1="86.301" x2="-10" y2="-0.301"/>
		<line fill="#0B4EA2" stroke="#FFE57F" stroke-width="4" stroke-miterlimit="10" x1="50" y1="86.301" x2="0" y2="-0.301"/>
	</g>
	<g>
		<line fill="#0B4EA2" stroke="#FFE57F" stroke-width="4" stroke-miterlimit="10" x1="10" y1="86.301" x2="-40" y2="-0.301"/>
		<line fill="#0B4EA2" stroke="#FFE57F" stroke-width="4" stroke-miterlimit="10" x1="20" y1="86.301" x2="-30" y2="-0.301"/>
		<line fill="#0B4EA2" stroke="#FFE57F" stroke-width="4" stroke-miterlimit="10" x1="30" y1="86.301" x2="-20" y2="-0.301"/>
		<line fill="#0B4EA2" stroke="#FFE57F" stroke-width="4" stroke-miterlimit="10" x1="40" y1="86.301" x2="-10" y2="-0.301"/>
		<line fill="#0B4EA2" stroke="#FFE57F" stroke-width="4" stroke-miterlimit="10" x1="50" y1="86.301" x2="0" y2="-0.301"/>
		<line fill="#0B4EA2" stroke="#FFE57F" stroke-width="4" stroke-miterlimit="10" x1="0" y1="86.301" x2="-50" y2="-0.301"/>
	</g>
	<g>
		<line fill="#0B4EA2" stroke="#FFE57F" stroke-width="4" stroke-miterlimit="10" x1="0" y1="86.301" x2="-50" y2="-0.301"/>
	</g>
	<g>
		<line fill="#0B4EA2" stroke="#FFE57F" stroke-width="4" stroke-miterlimit="10" x1="60" y1="-0.299" x2="10" y2="-86.9"/>
		<line fill="#0B4EA2" stroke="#FFE57F" stroke-width="4" stroke-miterlimit="10" x1="70" y1="-0.299" x2="20" y2="-86.9"/>
		<line fill="#0B4EA2" stroke="#FFE57F" stroke-width="4" stroke-miterlimit="10" x1="80" y1="-0.299" x2="30" y2="-86.9"/>
		<line fill="#0B4EA2" stroke="#FFE57F" stroke-width="4" stroke-miterlimit="10" x1="90" y1="-0.299" x2="40" y2="-86.9"/>
		<line fill="#0B4EA2" stroke="#FFE57F" stroke-width="4" stroke-miterlimit="10" x1="100" y1="-0.299" x2="50" y2="-86.9"/>
	</g>
	<g>
		<line fill="#0B4EA2" stroke="#FFE57F" stroke-width="4" stroke-miterlimit="10" x1="60" y1="-0.299" x2="10" y2="-86.9"/>
		<line fill="#0B4EA2" stroke="#FFE57F" stroke-width="4" stroke-miterlimit="10" x1="70" y1="-0.299" x2="20" y2="-86.9"/>
		<line fill="#0B4EA2" stroke="#FFE57F" stroke-width="4" stroke-miterlimit="10" x1="80" y1="-0.299" x2="30" y2="-86.9"/>
		<line fill="#0B4EA2" stroke="#FFE57F" stroke-width="4" stroke-miterlimit="10" x1="90" y1="-0.299" x2="40" y2="-86.9"/>
		<line fill="#0B4EA2" stroke="#FFE57F" stroke-width="4" stroke-miterlimit="10" x1="100" y1="-0.299" x2="50" y2="-86.9"/>
		<line fill="#0B4EA2" stroke="#FFE57F" stroke-width="4" stroke-miterlimit="10" x1="10" y1="-0.299" x2="-40" y2="-86.9"/>
		<line fill="#0B4EA2" stroke="#FFE57F" stroke-width="4" stroke-miterlimit="10" x1="20" y1="-0.299" x2="-30" y2="-86.9"/>
		<line fill="#0B4EA2" stroke="#FFE57F" stroke-width="4" stroke-miterlimit="10" x1="30" y1="-0.299" x2="-20" y2="-86.9"/>
		<line fill="#0B4EA2" stroke="#FFE57F" stroke-width="4" stroke-miterlimit="10" x1="40" y1="-0.299" x2="-10" y2="-86.9"/>
		<line fill="#0B4EA2" stroke="#FFE57F" stroke-width="4" stroke-miterlimit="10" x1="50" y1="-0.299" x2="0" y2="-86.9"/>
	</g>
	<g>
		<line fill="#0B4EA2" stroke="#FFE57F" stroke-width="4" stroke-miterlimit="10" x1="10" y1="-0.299" x2="-40" y2="-86.9"/>
		<line fill="#0B4EA2" stroke="#FFE57F" stroke-width="4" stroke-miterlimit="10" x1="20" y1="-0.299" x2="-30" y2="-86.9"/>
		<line fill="#0B4EA2" stroke="#FFE57F" stroke-width="4" stroke-miterlimit="10" x1="30" y1="-0.299" x2="-20" y2="-86.9"/>
		<line fill="#0B4EA2" stroke="#FFE57F" stroke-width="4" stroke-miterlimit="10" x1="40" y1="-0.299" x2="-10" y2="-86.9"/>
		<line fill="#0B4EA2" stroke="#FFE57F" stroke-width="4" stroke-miterlimit="10" x1="50" y1="-0.299" x2="0" y2="-86.9"/>
		<line fill="#0B4EA2" stroke="#FFE57F" stroke-width="4" stroke-miterlimit="10" x1="0" y1="-0.299" x2="-50" y2="-86.9"/>
	</g>
	<g>
		<line fill="#0B4EA2" stroke="#FFE57F" stroke-width="4" stroke-miterlimit="10" x1="0" y1="-0.299" x2="-50" y2="-86.9"/>
	</g>
</g>
</svg>
