<?xml version="1.0" encoding="utf-8"?>
<!-- Generator: Adobe Illustrator 16.0.3, SVG Export Plug-In . SVG Version: 6.00 Build 0)  -->
<!DOCTYPE svg PUBLIC "-//W3C//DTD SVG 1.1//EN" "http://www.w3.org/Graphics/SVG/1.1/DTD/svg11.dtd">
<svg version="1.1" id="Layer_1" xmlns="http://www.w3.org/2000/svg" xmlns:xlink="http://www.w3.org/1999/xlink" x="0px" y="0px"
	 width="50px" height="86.6px" viewBox="0 0 50 86.6" enable-background="new 0 0 50 86.6" xml:space="preserve">
<g>
	<rect x="0.09" y="-0.39" fill="none" width="50" height="86.6"/>
	<g>
		<line fill="none" stroke="#83E8AF" stroke-width="4" stroke-miterlimit="10" x1="60.09" y1="172.811" x2="10.09" y2="86.209"/>
		<line fill="none" stroke="#83E8AF" stroke-width="4" stroke-miterlimit="10" x1="70.09" y1="172.811" x2="20.09" y2="86.209"/>
		<line fill="none" stroke="#83E8AF" stroke-width="4" stroke-miterlimit="10" x1="80.09" y1="172.811" x2="30.09" y2="86.209"/>
		<line fill="none" stroke="#83E8AF" stroke-width="4" stroke-miterlimit="10" x1="90.09" y1="172.811" x2="40.09" y2="86.209"/>
		<line fill="none" stroke="#83E8AF" stroke-width="4" stroke-miterlimit="10" x1="100.09" y1="172.811" x2="50.09" y2="86.209"/>
	</g>
	<g>
		<line fill="none" stroke="#83E8AF" stroke-width="4" stroke-miterlimit="10" x1="60.09" y1="172.811" x2="10.09" y2="86.209"/>
		<line fill="none" stroke="#83E8AF" stroke-width="4" stroke-miterlimit="10" x1="70.09" y1="172.811" x2="20.09" y2="86.209"/>
		<line fill="none" stroke="#83E8AF" stroke-width="4" stroke-miterlimit="10" x1="80.09" y1="172.811" x2="30.09" y2="86.209"/>
		<line fill="none" stroke="#83E8AF" stroke-width="4" stroke-miterlimit="10" x1="90.09" y1="172.811" x2="40.09" y2="86.209"/>
		<line fill="none" stroke="#83E8AF" stroke-width="4" stroke-miterlimit="10" x1="100.09" y1="172.811" x2="50.09" y2="86.209"/>
		<line fill="none" stroke="#83E8AF" stroke-width="4" stroke-miterlimit="10" x1="10.09" y1="172.811" x2="-39.91" y2="86.209"/>
		<line fill="none" stroke="#83E8AF" stroke-width="4" stroke-miterlimit="10" x1="20.09" y1="172.811" x2="-29.91" y2="86.209"/>
		<line fill="none" stroke="#83E8AF" stroke-width="4" stroke-miterlimit="10" x1="30.09" y1="172.811" x2="-19.91" y2="86.209"/>
		<line fill="none" stroke="#83E8AF" stroke-width="4" stroke-miterlimit="10" x1="40.09" y1="172.811" x2="-9.91" y2="86.209"/>
		<line fill="none" stroke="#83E8AF" stroke-width="4" stroke-miterlimit="10" x1="50.09" y1="172.811" x2="0.09" y2="86.209"/>
	</g>
	<g>
		<line fill="none" stroke="#83E8AF" stroke-width="4" stroke-miterlimit="10" x1="10.09" y1="172.811" x2="-39.91" y2="86.209"/>
		<line fill="none" stroke="#83E8AF" stroke-width="4" stroke-miterlimit="10" x1="20.09" y1="172.811" x2="-29.91" y2="86.209"/>
		<line fill="none" stroke="#83E8AF" stroke-width="4" stroke-miterlimit="10" x1="30.09" y1="172.811" x2="-19.91" y2="86.209"/>
		<line fill="none" stroke="#83E8AF" stroke-width="4" stroke-miterlimit="10" x1="40.09" y1="172.811" x2="-9.91" y2="86.209"/>
		<line fill="none" stroke="#83E8AF" stroke-width="4" stroke-miterlimit="10" x1="50.09" y1="172.811" x2="0.09" y2="86.209"/>
		<line fill="none" stroke="#83E8AF" stroke-width="4" stroke-miterlimit="10" x1="0.09" y1="172.811" x2="-49.91" y2="86.209"/>
	</g>
	<g>
		<line fill="none" stroke="#83E8AF" stroke-width="4" stroke-miterlimit="10" x1="0.09" y1="172.811" x2="-49.91" y2="86.209"/>
	</g>
	<g>
		<line fill="none" stroke="#83E8AF" stroke-width="4" stroke-miterlimit="10" x1="60.09" y1="86.211" x2="10.09" y2="-0.391"/>
		<line fill="none" stroke="#83E8AF" stroke-width="4" stroke-miterlimit="10" x1="70.09" y1="86.211" x2="20.09" y2="-0.391"/>
		<line fill="none" stroke="#83E8AF" stroke-width="4" stroke-miterlimit="10" x1="80.09" y1="86.211" x2="30.09" y2="-0.391"/>
		<line fill="none" stroke="#83E8AF" stroke-width="4" stroke-miterlimit="10" x1="90.09" y1="86.211" x2="40.09" y2="-0.391"/>
		<line fill="none" stroke="#83E8AF" stroke-width="4" stroke-miterlimit="10" x1="100.09" y1="86.211" x2="50.09" y2="-0.391"/>
	</g>
	<g>
		<line fill="none" stroke="#83E8AF" stroke-width="4" stroke-miterlimit="10" x1="60.09" y1="86.211" x2="10.09" y2="-0.391"/>
		<line fill="none" stroke="#83E8AF" stroke-width="4" stroke-miterlimit="10" x1="70.09" y1="86.211" x2="20.09" y2="-0.391"/>
		<line fill="none" stroke="#83E8AF" stroke-width="4" stroke-miterlimit="10" x1="80.09" y1="86.211" x2="30.09" y2="-0.391"/>
		<line fill="none" stroke="#83E8AF" stroke-width="4" stroke-miterlimit="10" x1="90.09" y1="86.211" x2="40.09" y2="-0.391"/>
		<line fill="none" stroke="#83E8AF" stroke-width="4" stroke-miterlimit="10" x1="100.09" y1="86.211" x2="50.09" y2="-0.391"/>
		<line fill="none" stroke="#83E8AF" stroke-width="4" stroke-miterlimit="10" x1="10.09" y1="86.211" x2="-39.91" y2="-0.391"/>
		<line fill="none" stroke="#83E8AF" stroke-width="4" stroke-miterlimit="10" x1="20.09" y1="86.211" x2="-29.91" y2="-0.391"/>
		<line fill="none" stroke="#83E8AF" stroke-width="4" stroke-miterlimit="10" x1="30.09" y1="86.211" x2="-19.91" y2="-0.391"/>
		<line fill="none" stroke="#83E8AF" stroke-width="4" stroke-miterlimit="10" x1="40.09" y1="86.211" x2="-9.91" y2="-0.391"/>
		<line fill="none" stroke="#83E8AF" stroke-width="4" stroke-miterlimit="10" x1="50.09" y1="86.211" x2="0.09" y2="-0.391"/>
	</g>
	<g>
		<line fill="none" stroke="#83E8AF" stroke-width="4" stroke-miterlimit="10" x1="10.09" y1="86.211" x2="-39.91" y2="-0.391"/>
		<line fill="none" stroke="#83E8AF" stroke-width="4" stroke-miterlimit="10" x1="20.09" y1="86.211" x2="-29.91" y2="-0.391"/>
		<line fill="none" stroke="#83E8AF" stroke-width="4" stroke-miterlimit="10" x1="30.09" y1="86.211" x2="-19.91" y2="-0.391"/>
		<line fill="none" stroke="#83E8AF" stroke-width="4" stroke-miterlimit="10" x1="40.09" y1="86.211" x2="-9.91" y2="-0.391"/>
		<line fill="none" stroke="#83E8AF" stroke-width="4" stroke-miterlimit="10" x1="50.09" y1="86.211" x2="0.09" y2="-0.391"/>
		<line fill="none" stroke="#83E8AF" stroke-width="4" stroke-miterlimit="10" x1="0.09" y1="86.211" x2="-49.91" y2="-0.391"/>
	</g>
	<g>
		<line fill="none" stroke="#83E8AF" stroke-width="4" stroke-miterlimit="10" x1="0.09" y1="86.211" x2="-49.91" y2="-0.391"/>
	</g>
	<g>
		<line fill="none" stroke="#83E8AF" stroke-width="4" stroke-miterlimit="10" x1="60.09" y1="-0.389" x2="10.09" y2="-86.99"/>
		<line fill="none" stroke="#83E8AF" stroke-width="4" stroke-miterlimit="10" x1="70.09" y1="-0.389" x2="20.09" y2="-86.99"/>
		<line fill="none" stroke="#83E8AF" stroke-width="4" stroke-miterlimit="10" x1="80.09" y1="-0.389" x2="30.09" y2="-86.99"/>
		<line fill="none" stroke="#83E8AF" stroke-width="4" stroke-miterlimit="10" x1="90.09" y1="-0.389" x2="40.09" y2="-86.99"/>
		<line fill="none" stroke="#83E8AF" stroke-width="4" stroke-miterlimit="10" x1="100.09" y1="-0.389" x2="50.09" y2="-86.99"/>
	</g>
	<g>
		<line fill="none" stroke="#83E8AF" stroke-width="4" stroke-miterlimit="10" x1="60.09" y1="-0.389" x2="10.09" y2="-86.99"/>
		<line fill="none" stroke="#83E8AF" stroke-width="4" stroke-miterlimit="10" x1="70.09" y1="-0.389" x2="20.09" y2="-86.99"/>
		<line fill="none" stroke="#83E8AF" stroke-width="4" stroke-miterlimit="10" x1="80.09" y1="-0.389" x2="30.09" y2="-86.99"/>
		<line fill="none" stroke="#83E8AF" stroke-width="4" stroke-miterlimit="10" x1="90.09" y1="-0.389" x2="40.09" y2="-86.99"/>
		<line fill="none" stroke="#83E8AF" stroke-width="4" stroke-miterlimit="10" x1="100.09" y1="-0.389" x2="50.09" y2="-86.99"/>
		<line fill="none" stroke="#83E8AF" stroke-width="4" stroke-miterlimit="10" x1="10.09" y1="-0.389" x2="-39.91" y2="-86.99"/>
		<line fill="none" stroke="#83E8AF" stroke-width="4" stroke-miterlimit="10" x1="20.09" y1="-0.389" x2="-29.91" y2="-86.99"/>
		<line fill="none" stroke="#83E8AF" stroke-width="4" stroke-miterlimit="10" x1="30.09" y1="-0.389" x2="-19.91" y2="-86.99"/>
		<line fill="none" stroke="#83E8AF" stroke-width="4" stroke-miterlimit="10" x1="40.09" y1="-0.389" x2="-9.91" y2="-86.99"/>
		<line fill="none" stroke="#83E8AF" stroke-width="4" stroke-miterlimit="10" x1="50.09" y1="-0.389" x2="0.09" y2="-86.99"/>
	</g>
	<g>
		<line fill="none" stroke="#83E8AF" stroke-width="4" stroke-miterlimit="10" x1="10.09" y1="-0.389" x2="-39.91" y2="-86.99"/>
		<line fill="none" stroke="#83E8AF" stroke-width="4" stroke-miterlimit="10" x1="20.09" y1="-0.389" x2="-29.91" y2="-86.99"/>
		<line fill="none" stroke="#83E8AF" stroke-width="4" stroke-miterlimit="10" x1="30.09" y1="-0.389" x2="-19.91" y2="-86.99"/>
		<line fill="none" stroke="#83E8AF" stroke-width="4" stroke-miterlimit="10" x1="40.09" y1="-0.389" x2="-9.91" y2="-86.99"/>
		<line fill="none" stroke="#83E8AF" stroke-width="4" stroke-miterlimit="10" x1="50.09" y1="-0.389" x2="0.09" y2="-86.99"/>
		<line fill="none" stroke="#83E8AF" stroke-width="4" stroke-miterlimit="10" x1="0.09" y1="-0.389" x2="-49.91" y2="-86.99"/>
	</g>
	<g>
		<line fill="none" stroke="#83E8AF" stroke-width="4" stroke-miterlimit="10" x1="0.09" y1="-0.389" x2="-49.91" y2="-86.99"/>
	</g>
</g>
</svg>
